<svg xmlns="http://www.w3.org/2000/svg" viewBox="0 0 669.7 1080"><title>Ativo 1</title><g id="Camada_2" data-name="Camada 2"><g id="Camada_1-2" data-name="Camada 1"><path d="M333.44,981.42c0-10.51.87-21.11-.16-31.53-3.8-38.58-2.59-66.27,49.59-75.43,56.77-10,85.79-57.85,84.95-111.08-.85-54.16-36.61-103.6-94-119.26-41.85-11.41-86.64-11.77-128.93-22-166.16-40-257.47-165-243.48-330C14.62,136.21,144.12,11.52,303.8,1c188-12.41,332,94.84,358.26,265.8,5.37,35,2.61,58.33-42.67,52.23-24.11-3.25-49-.94-73.58-.49-43,.8-80.88,7.3-93.85-56.74-11.47-56.71-90.55-79.58-160.54-60.76-58.29,15.67-94.26,68.07-90.2,131.38,3.82,59.53,48.47,105.33,114.1,109.41,63.63,4,125.16,12.89,182.94,41.14,130.79,63.95,197.25,210.84,162.12,358.81-32.09,135.15-159.3,235.83-298,238.24-25,.43-30.19-8.77-29.15-30.23C334.3,1027,333.44,1004.21,333.44,981.42Z"/></g></g></svg>