<svg xmlns="http://www.w3.org/2000/svg" viewBox="0 0 709.57 148.04"><defs><style>.cls-1{fill:none;}.cls-2{fill:#f5be00;}.cls-3{fill:#fbfbfb;}.cls-4{fill:#fff;}</style></defs><title>sj-logo_2</title><g id="Camada_2" data-name="Camada 2"><g id="Camada_1-2" data-name="Camada 1"><path class="cls-1" d="M471,77.73c0-.14,0-.28.08-.41C471,77.45,471,77.59,471,77.73Z"/><path class="cls-1" d="M473.91,86.49c-.19-.17-.37-.35-.54-.53C473.54,86.14,473.72,86.32,473.91,86.49Z"/><path class="cls-1" d="M479,88.9a8.74,8.74,0,0,1-.89-.17A8.74,8.74,0,0,0,479,88.9Z"/><path class="cls-1" d="M471.21,76.77l.1-.34Z"/><path class="cls-1" d="M478,88.71c-.28-.07-.56-.16-.84-.25C477.44,88.55,477.72,88.64,478,88.71Z"/><path class="cls-1" d="M471.53,75.85l.12-.28Z"/><path class="cls-1" d="M473.26,85.83c-.17-.18-.32-.37-.47-.56C472.94,85.46,473.09,85.65,473.26,85.83Z"/><path class="cls-1" d="M474.29,72.1l.11-.09Z"/><path class="cls-1" d="M473.61,72.72l.11-.11Z"/><path class="cls-1" d="M475,71.54l.1-.07Z"/><path class="cls-1" d="M473,73.42l.12-.15Z"/><path class="cls-1" d="M479.91,89a9,9,0,0,1-.91-.08A9,9,0,0,0,479.91,89Z"/><path class="cls-1" d="M472.42,74.17l.12-.18Z"/><path class="cls-1" d="M472.15,84.32c-.11-.19-.22-.39-.32-.59C471.93,83.93,472,84.13,472.15,84.32Z"/><path class="cls-1" d="M472.67,85.1c-.14-.19-.27-.38-.4-.58C472.4,84.72,472.53,84.91,472.67,85.1Z"/><path class="cls-1" d="M471.35,82.59c-.07-.19-.13-.37-.18-.56C471.22,82.22,471.28,82.4,471.35,82.59Z"/><path class="cls-1" d="M475.39,87.61l-.66-.44Z"/><path class="cls-1" d="M476.22,88.06c-.25-.12-.49-.25-.73-.39C475.73,87.81,476,87.94,476.22,88.06Z"/><path class="cls-1" d="M471.71,83.48a6,6,0,0,1-.25-.58A6,6,0,0,0,471.71,83.48Z"/><path class="cls-1" d="M471.08,81.66c0-.18-.08-.36-.11-.54C471,81.3,471,81.48,471.08,81.66Z"/><path class="cls-1" d="M477.09,88.43q-.4-.15-.78-.33Q476.69,88.28,477.09,88.43Z"/><path class="cls-1" d="M470.86,78.71c0-.15,0-.31,0-.46C470.88,78.4,470.87,78.56,470.86,78.71Z"/><path class="cls-1" d="M470.9,80.69c0-.17,0-.33,0-.5C470.86,80.36,470.88,80.52,470.9,80.69Z"/><path class="cls-1" d="M470.82,79.37c0,.11,0,.22,0,.33,0-.16,0-.32,0-.48Z"/><path class="cls-1" d="M474.62,87.09c-.2-.16-.4-.32-.6-.5C474.22,86.77,474.42,86.93,474.62,87.09Z"/><path class="cls-1" d="M471.94,75l.12-.22Z"/><path class="cls-1" d="M478.49,70.1h0Z"/><path class="cls-1" d="M477.57,70.33l.07,0Z"/><path class="cls-1" d="M480.46,69.92h0Z"/><path class="cls-1" d="M479.45,70h0Z"/><path class="cls-1" d="M489.91,79.7v0h0V79.4C489.91,79.5,489.92,79.6,489.91,79.7Z"/><path class="cls-1" d="M480,89l.29,0h0a9.47,9.47,0,0,0,9.61-9A9.55,9.55,0,0,1,480,89Z"/><path class="cls-1" d="M475.83,71.06l.1,0Z"/><path class="cls-1" d="M460.14,32.09c-19.38,8-27.72,24.35-28.6,44.35C430,112,456.85,137.88,494.79,128.52c20.79-5.13,34.14-24.67,34.64-48.8C529,36.48,491.77,19.09,460.14,32.09Zm30.65,78.84c-18.79,6.61-37.63-5.6-39.79-25.86a43.37,43.37,0,0,1,.8-15.36C455.74,54,467.35,45.12,483,46.07c14,.86,25.19,12.25,27,27.54.22,2,.29,4,.37,5.09C510.29,94.55,502.7,106.73,490.79,110.93Z"/><path class="cls-1" d="M107.8,47.06c-13,3.28-21.73,16.16-21.73,32.16,0,1.34-.09,2.67,0,4,1.1,16.48,12.13,28,27.93,29.23,14.88,1.13,27-8.43,30.61-24.34A41.93,41.93,0,0,0,145,72.72C142.28,53.75,126,42.51,107.8,47.06Z"/><path class="cls-1" d="M476.68,70.66l.08,0Z"/><path class="cls-1" d="M489.91,79.4a9.55,9.55,0,0,0-9.43-9.48h-.07a9.1,9.1,0,0,0-.91,0h-.05a8.47,8.47,0,0,0-.9.13h-.06c-.29.06-.57.13-.85.21l-.07,0c-.27.09-.55.18-.81.29l-.08,0a6.41,6.41,0,0,0-.75.35l-.1,0-.69.41-.1.07c-.22.15-.43.31-.64.47l-.11.09c-.19.16-.39.33-.57.51l-.11.11c-.18.18-.35.36-.51.55l-.12.15c-.15.18-.3.37-.44.57l-.12.18c-.12.19-.25.39-.36.59l-.12.22c-.11.2-.2.39-.29.59l-.12.28c-.08.19-.15.38-.22.58l-.1.34-.15.55c0,.13-.05.27-.08.41s-.06.34-.08.52,0,.31,0,.46,0,.34,0,.51,0,.32,0,.48,0,.33,0,.49,0,.33,0,.5,0,.29.07.43.07.36.11.54l.09.37c.05.19.11.37.18.56s.07.21.11.31a6,6,0,0,0,.25.58l.12.25c.1.2.21.4.32.59l.12.2c.13.2.26.39.4.58l.12.17c.15.19.3.38.47.56l.11.13c.17.18.35.36.54.53l.11.1c.2.18.4.34.6.5l.11.08.66.44.1.06c.24.14.48.27.73.39l.09,0q.38.18.78.33l.07,0c.28.09.56.18.84.25l.06,0a8.74,8.74,0,0,0,.89.17H479a9,9,0,0,0,.91.08H480a9.55,9.55,0,0,0,9.91-8.94c0-.12,0-.23,0-.34v0C489.92,79.6,489.91,79.5,489.91,79.4Z"/><path class="cls-1" d="M246,65.56c0-3.92.05-7.83.05-11.74C246,57.73,246,61.64,246,65.56Z"/><path class="cls-1" d="M277.47,130.58l9.37,0Z"/><path class="cls-1" d="M259.47,130.58h18C271.47,130.58,265.47,130.53,259.47,130.58Z"/><path class="cls-1" d="M286.84,130.55c3.12,0,6.23,0,9.35,0C293.09,130.54,290,130.54,286.84,130.55Z"/><path class="cls-2" d="M704.16,0C643.24,1.91,582.3,3.56,521.38,5.29q-91.89,2.63-183.8,4.87c-4.36.11-5.52,1.26-5.5,5.65q.27,63.18,0,126.34c0,4.93,1.31,5.9,6,5.89q175.14-.21,350.27-.11a25,25,0,0,1,3,0c2.41.31,3.14-.87,3.36-3.1q2.5-24.83,5.15-49.63C703,65.43,706,35.64,709.4,5.9,710,.93,709.16-.13,704.16,0ZM422.67,58.28c-.05,3.91-.05,7.82-.05,11.74v30c0,9.11-2.73,16.89-7.7,22.78-7.45,8.83-18.19,10.85-21.85,11.53a41.16,41.16,0,0,1-6.79.68,1.59,1.59,0,0,1-1.61-1.58V117.62a1.58,1.58,0,0,1,1.49-1.58c3.74-.21,9.59-1.22,13.44-5.6A17,17,0,0,0,403.5,99c0-20.47.11-40.95-.12-61.42V33.93A1.62,1.62,0,0,1,405,32.31h16a1.61,1.61,0,0,1,1.62,1.62V46.55C422.67,50.46,422.72,54.37,422.67,58.28Zm72.12,70.24C456.85,137.88,430,112,431.54,76.44c.88-20,9.22-36.38,28.6-44.35,31.63-13,68.82,4.39,69.29,47.63C528.93,103.85,515.58,123.39,494.79,128.52Zm39.62-68.81c0-.93,0-1.86,0-2.79,0-2.8-.14-5.64-.14-8.45v0c0,2.81.12,5.64.14,8.45C534.44,57.85,534.43,58.78,534.41,59.71Zm18.3-4.17c-.19,8.09-.07,16.19-.07,24.28,0,8.24-.1,16.48.06,24.72v1a2.83,2.83,0,0,1-2.83,2.83h-11.6a2.83,2.83,0,0,1-2.83-2.83V94.89c-.14-12.94.11-25.9-.14-38.84V54.37a2.82,2.82,0,0,1,2.82-2.82h11.76a2.83,2.83,0,0,1,2.83,2.82Zm37.2,25.87a31.69,31.69,0,0,1,7.86,17.12,44.4,44.4,0,0,1-.7,18c-3.75,14.66-14.12,23.23-29.18,23.52h-1.45a1.53,1.53,0,0,1-1.54-1.54l0-14.12a1.55,1.55,0,0,1,1.45-1.53c7.07-.36,11.47-3.4,13.88-9.5,2.77-7,1.17-16-3.65-20.62-2.87-2.73-6.37-3.46-10.18-3.46h-1.54V72.34h.05v-.72c7.91,0,12.75-3,15.32-9.55,2.77-7,1.17-16-3.65-20.61-2.87-2.73-6.37-3.46-10.18-3.46a1.54,1.54,0,0,1-1.54-1.54V22.6a1.54,1.54,0,0,1,1.54-1.54h.94c16.38,0,27.9,10,30.4,26.18a44.46,44.46,0,0,1-.7,18,33.38,33.38,0,0,1-7.19,14.13A1.53,1.53,0,0,0,589.91,81.41ZM667.7,102.7a30.11,30.11,0,0,1-28.29,22.62c-2.37,0-2.87-.87-2.77-2.87.06-1.08.06-2.16.06-3.24v-5.5a3.69,3.69,0,0,1-.05-.74c-.36-3.66-.29-6.29,4.71-7.16,5.39-1,8.14-5.54,8.06-10.54A11.89,11.89,0,0,0,640.5,84c-4-1.09-8.24-1.09-12.24-2.09-15.77-3.79-24.43-15.65-23.11-31.32,1.26-14.8,13.55-26.63,28.72-27.72,17.84-1.18,31.51,9,34,25.22.51,3.36.24,5.58-4,5a45.44,45.44,0,0,0-7,0c-4.08.08-7.67.7-8.9-5.38-1.09-5.38-8.6-7.55-15.24-5.77-5.56,1.47-8.95,6.47-8.56,12.47.36,5.65,4.6,10,10.83,10.39,6,.37,11.88,1.22,17.36,3.9C664.72,74.72,671,88.66,667.7,102.7Z"/><path class="cls-2" d="M534.43,56.92c0,.93,0,1.86,0,2.79C534.43,58.78,534.44,57.85,534.43,56.92Z"/><path class="cls-2" d="M534.29,48.47c0,2.81.12,5.65.14,8.45C534.41,54.11,534.29,51.28,534.29,48.47Z"/><path class="cls-2" d="M337.58,10.16q91.91-2.25,183.8-4.87Q429.48,7.78,337.58,10.16Z"/><path class="cls-3" d="M101.79,29.79C80.24,35,66.67,54.5,66.55,78.9c.46,39.25,32.05,59.45,65.55,49,21.05-6.58,30.67-23.13,32.38-44.12C167.32,48.72,140.87,20.25,101.79,29.79Zm42.82,58.32C141,104,128.88,113.58,114,112.45,98.2,111.24,87.17,99.7,86.07,83.22c-.09-1.33,0-2.66,0-4,0-16,8.69-28.88,21.73-32.16,18.2-4.55,34.48,6.69,37.2,25.66A41.93,41.93,0,0,1,144.61,88.11Z"/><path class="cls-3" d="M245,28.78c-2.65-2.25-8.58-.44-13-.88-4.16-.41-5.29,1-5.24,5.16.23,20.47.08,41,.12,61.42,0,4.3-.82,8.25-3.9,11.48-5.18,5.44-15.37,7.25-23.27,4.12-7.34-2.9-10.76-8.36-10.77-17.29,0-14.15-.1-28.3.08-42.44,0-3.13-.89-4.07-3.94-3.89a104.43,104.43,0,0,1-12,0c-2.93-.16-3.64,1-3.62,3.72.12,15.32-.17,30.63.12,45.94.33,17,10,28.7,26.55,32.94a50.43,50.43,0,0,0,20.32.79C234.77,127,246,114,246,95.54v-30c0-3.92,0-7.83.05-11.74s0-7.82-.1-11.73C245.87,37.52,248.09,31.42,245,28.78Z"/><path class="cls-3" d="M47.29,73.81c-5.48-2.68-11.32-3.53-17.36-3.9-6.23-.39-10.47-4.74-10.83-10.39-.39-6,3-11,8.56-12.47,6.64-1.78,14.15.39,15.24,5.77,1.23,6.08,4.82,5.46,8.9,5.38a45.44,45.44,0,0,1,7,0c4.29.58,4.56-1.64,4.05-5C60.36,37,46.69,26.8,28.85,28,13.68,29.07,1.39,40.9.13,55.7-1.19,71.37,7.47,83.23,23.24,87c4,1,8.27,1,12.24,2.09a11.89,11.89,0,0,1,8.92,11.32c.08,5-2.67,9.59-8.06,10.54-5,.87-5.07,3.5-4.71,7.16a3.69,3.69,0,0,0,.05.74v5.5c0,1.08,0,2.16-.06,3.24-.1,2,.4,2.91,2.77,2.87a30.11,30.11,0,0,0,28.29-22.62C66,93.82,59.7,79.88,47.29,73.81Z"/><path class="cls-3" d="M31.68,121.12v-2.25C31.69,119.62,31.65,120.37,31.68,121.12Z"/><path class="cls-3" d="M250.88,91c3,2.47,9.51.51,14.44.9,3.5.28,4.1-1.14,4-4.24-.18-9.3-.07-18.6-.07-27.9,0-9.13-.13-18.27.08-27.4.07-3.34-.68-4.86-4.34-4.51a52.2,52.2,0,0,1-10,0c-4-.41-5.39.79-5.31,5.08.28,14.61,0,29.23.16,43.84C250,81.74,247.69,88.46,250.88,91Z"/><path class="cls-3" d="M301.79,111.2c-12.31.17-24.62,0-36.93.08-4.79,0-11.39-1.64-13.93.81-3.2,3.1-.65,9.72-1.09,14.79-.25,2.84.86,3.79,3.67,3.75,2,0,4-.07,6-.07h18c6.24,0,12.48-.07,18.72,0,2.08,0,4.16,0,6.24.08,3.11.07,4.09-1,3.91-4a80.76,80.76,0,0,1,0-11C306.63,112,305.2,111.15,301.79,111.2Z"/><path class="cls-2" d="M483,46.07c-15.65-1-27.26,7.89-31.2,23.64a43.37,43.37,0,0,0-.8,15.36c2.16,20.26,21,32.47,39.79,25.86,11.91-4.2,19.5-16.38,19.54-32.23-.08-1.11-.15-3.11-.37-5.09C508.19,58.32,497,46.93,483,46.07Zm6.91,33.64h0v.14a1.36,1.36,0,0,0,0,.2,9.47,9.47,0,0,1-9.61,9h0L480,89h-.07a9,9,0,0,1-.91-.08H479a8.74,8.74,0,0,1-.89-.17l-.06,0c-.28-.07-.56-.16-.84-.25l-.07,0q-.4-.15-.78-.33l-.09,0c-.25-.12-.49-.25-.73-.39l-.1-.06-.66-.44-.11-.08c-.2-.16-.4-.32-.6-.5l-.11-.1c-.19-.17-.37-.35-.54-.53l-.11-.13c-.17-.18-.32-.37-.47-.56l-.12-.17c-.14-.19-.27-.38-.4-.58l-.12-.2c-.11-.19-.22-.39-.32-.59s-.08-.17-.12-.25a6,6,0,0,1-.25-.58c0-.1-.08-.21-.11-.31s-.13-.37-.18-.56l-.09-.37c0-.18-.08-.36-.11-.54s-.05-.29-.07-.43,0-.33,0-.5,0-.33,0-.49,0-.22,0-.33v-.15a1,1,0,0,0,0-.17c0-.11,0-.23,0-.34s0-.31,0-.46.05-.35.08-.52,0-.28.08-.41l.15-.55.1-.34c.07-.2.14-.39.22-.58l.12-.28c.09-.2.19-.39.29-.59l.12-.22c.11-.2.24-.4.36-.59l.12-.18c.14-.2.29-.39.44-.57l.12-.15c.16-.19.33-.37.51-.55l.11-.11c.18-.18.38-.35.57-.51l.11-.09c.21-.16.42-.32.64-.47l.1-.07.69-.41.1,0a6.41,6.41,0,0,1,.75-.35l.08,0c.27-.11.54-.2.81-.29l.07,0c.28-.08.56-.15.85-.21h.06a8.47,8.47,0,0,1,.9-.13h.05a9.1,9.1,0,0,1,.91,0h.07a2.81,2.81,0,0,1,.29,0h.07a9.42,9.42,0,0,1,9.07,9.48v.31Z"/><path class="cls-4" d="M125.2,79.71h0a.61.61,0,0,1,0,.14c0,.07,0,.13,0,.2a9.47,9.47,0,0,1-9.61,9h0l-.29,0h-.07a9,9,0,0,1-.91-.08h-.06a8.55,8.55,0,0,1-.88-.17l-.06,0c-.28-.07-.56-.16-.84-.25l-.07,0c-.27-.1-.53-.21-.79-.33l-.08,0c-.25-.12-.49-.25-.73-.39l-.1-.06c-.23-.14-.45-.29-.66-.44l-.11-.08a7.22,7.22,0,0,1-.6-.5l-.11-.1c-.19-.17-.37-.35-.54-.53l-.12-.13c-.16-.18-.32-.37-.46-.56a1.77,1.77,0,0,1-.12-.17c-.14-.19-.28-.38-.4-.58l-.12-.2c-.12-.19-.23-.39-.33-.59s-.07-.17-.11-.25a6,6,0,0,1-.25-.58c0-.1-.08-.21-.11-.31s-.13-.37-.18-.56-.06-.25-.09-.37a5.23,5.23,0,0,1-.12-.54l-.06-.43c0-.17,0-.33,0-.5a4,4,0,0,1,0-.49c0-.11,0-.22,0-.33s0-.1,0-.15v-.17l0-.34c0-.15,0-.31,0-.46s0-.35.08-.52,0-.28.08-.41a4.94,4.94,0,0,1,.15-.55c0-.11.06-.23.1-.34s.14-.39.22-.58.07-.18.11-.28.19-.39.3-.59a2.39,2.39,0,0,1,.12-.22c.11-.2.23-.4.36-.59l.12-.18c.14-.2.29-.39.44-.57l.12-.15c.16-.19.33-.37.51-.55l.11-.11a6.91,6.91,0,0,1,.57-.51l.11-.09c.2-.16.42-.32.64-.47l.1-.07c.22-.14.45-.28.69-.41l.09,0a7.43,7.43,0,0,1,.76-.35l.08,0c.26-.11.53-.2.81-.29l.06,0c.28-.08.57-.15.86-.21h.06a8.67,8.67,0,0,1,.89-.13h.06a9.1,9.1,0,0,1,.91,0h.07a2.81,2.81,0,0,1,.29,0h.07a9.42,9.42,0,0,1,9.07,9.48v.31Z"/><path class="cls-2" d="M474.73,87.17l-.11-.08Z"/><path class="cls-2" d="M474,86.59l-.11-.1Z"/><path class="cls-2" d="M478.06,88.73l-.06,0Z"/><path class="cls-2" d="M489.91,79.86v-.14c0,.11,0,.22,0,.34A1.36,1.36,0,0,1,489.91,79.86Z"/><path class="cls-2" d="M480,89h0Z"/><path class="cls-2" d="M477.16,88.46l-.07,0Z"/><path class="cls-2" d="M475.49,87.67l-.1-.06Z"/><path class="cls-2" d="M476.31,88.1l-.09,0Z"/><path class="cls-2" d="M479,88.91h0Z"/><path class="cls-2" d="M474.4,72c.21-.16.42-.32.64-.47C474.82,71.69,474.61,71.85,474.4,72Z"/><path class="cls-2" d="M475.14,71.47l.69-.41Z"/><path class="cls-2" d="M473.72,72.61c.18-.18.38-.35.57-.51C474.1,72.26,473.9,72.43,473.72,72.61Z"/><path class="cls-2" d="M472.54,74c.14-.2.29-.39.44-.57C472.83,73.6,472.68,73.79,472.54,74Z"/><path class="cls-2" d="M472.06,74.76c.11-.2.24-.4.36-.59C472.3,74.36,472.17,74.56,472.06,74.76Z"/><path class="cls-2" d="M475.93,71a6.41,6.41,0,0,1,.75-.35A6.41,6.41,0,0,0,475.93,71Z"/><path class="cls-2" d="M473.1,73.27c.16-.19.33-.37.51-.55C473.43,72.9,473.26,73.08,473.1,73.27Z"/><path class="cls-2" d="M476.76,70.62c.26-.11.54-.2.81-.29C477.3,70.42,477,70.51,476.76,70.62Z"/><path class="cls-2" d="M479.5,70a9.1,9.1,0,0,1,.91,0A9.1,9.1,0,0,0,479.5,70Z"/><path class="cls-2" d="M473.37,86l-.11-.13Z"/><path class="cls-2" d="M478.55,70.09a8.47,8.47,0,0,1,.9-.13A8.47,8.47,0,0,0,478.55,70.09Z"/><path class="cls-2" d="M477.64,70.31c.28-.08.56-.15.85-.21C478.2,70.16,477.92,70.23,477.64,70.31Z"/><path class="cls-2" d="M489.91,79.4a9.42,9.42,0,0,0-9.07-9.48h-.07a2.81,2.81,0,0,0-.29,0A9.55,9.55,0,0,1,489.91,79.4Z"/><path class="cls-2" d="M471.46,82.9c0-.1-.08-.21-.11-.31C471.38,82.69,471.42,82.8,471.46,82.9Z"/><path class="cls-2" d="M471.83,83.73l-.12-.25C471.75,83.56,471.78,83.65,471.83,83.73Z"/><path class="cls-2" d="M471,81.12c0-.14-.05-.29-.07-.43C470.92,80.83,470.94,81,471,81.12Z"/><path class="cls-2" d="M471.17,82l-.09-.37Z"/><path class="cls-2" d="M472.27,84.52l-.12-.2Z"/><path class="cls-2" d="M472.79,85.27l-.12-.17Z"/><path class="cls-2" d="M470.85,80.19c0-.16,0-.33,0-.49C470.83,79.86,470.84,80,470.85,80.19Z"/><path class="cls-2" d="M471.65,75.57c.09-.2.18-.39.29-.59C471.84,75.18,471.74,75.37,471.65,75.57Z"/><path class="cls-2" d="M470.9,78.25c0-.18.05-.35.08-.52C471,77.9,470.92,78.07,470.9,78.25Z"/><path class="cls-2" d="M471.31,76.43c.07-.2.14-.39.22-.58C471.45,76,471.38,76.23,471.31,76.43Z"/><path class="cls-2" d="M471.06,77.32l.15-.55Z"/><path class="cls-2" d="M470.82,79.05a1,1,0,0,1,0,.17c0-.17,0-.34,0-.51C470.85,78.82,470.83,78.94,470.82,79.05Z"/></g></g></svg>